mastitorrents.com
 
http://mastitorrents.com/forums/index.php
 
http://thepiratebay.org/user/HDvideos/0/7

X-Art - Constance (X-Art on TV) (720p)@Mastitorrents

Format                           : MPEG-4
Format profile                   : QuickTime
Codec ID                         : qt  
File size                        : 404 MiB
Duration                         : 11mn 9s
Overall bit rate                 : 5 066 Kbps
Encoded date                     : UTC 2011-12-02 06:28:11
Tagged date                      : UTC 2011-12-02 06:28:11

Video
ID                               : 2
Format                           : AVC
Format/Info                      : Advanced Video Codec
Format profile                   : Baseline@L3.0
Format settings, CABAC           : No
Format settings, ReFrames        : 1 frame
Format settings, GOP             : M=1, N=25
Muxing mode                      : Container profile=Baseline@1.3
Codec ID                         : avc1
Codec ID/Info                    : Advanced Video Coding
Duration                         : 11mn 9s
Bit rate                         : 4 953 Kbps
Width                            : 1 280 pixels
Height                           : 720 pixels
Display aspect ratio             : 16:9
Frame rate mode                  : Constant
Frame rate                       : 25.000 fps
Color space                      : YUV
Chroma subsampling               : 4:2:0
Bit depth                        : 8 bits
Scan type                        : Progressive
Bits/(Pixel*Frame)               : 0.215
Stream size                      : 395 MiB (98%)
Language                         : English

Audio
ID                               : 1
Format                           : AAC
Format/Info                      : Advanced Audio Codec
Format profile                   : LC
Codec ID                         : 40
Duration                         : 11mn 9s
Bit rate mode                    : Constant
Bit rate                         : 108 Kbps
Channel(s)                       : 2 channels
Channel positions                : Front: L R
Sampling rate                    : 44.1 KHz
Compression mode                 : Lossy
Stream size                      : 8.64 MiB (2%)
Language                         : English